/* XPM */
static char * bottom_active_xpm[] = {
"17 3 3 1",
" 	c None",
".	c #444444",
"+	c #000000",
".................",
".................",
"+++++++++++++++++"};
