/* XPM */
static char * maximize_prelight_xpm[] = {
"20 25 4 1",
" 	c None",
".	c #000000",
"+	c #666666",
"@	c #FFFFFF",
"....................",
"++++++++++++++++++++",
"++++++++++++++++++++",
"++++++++++++++++++++",
"++++++++++++++++++++",
"++++++++++++++++++++",
"++++++++++++++++++++",
"++++++++++++++++++++",
"++++++++++++++++++++",
"+++++++++@@+++++++++",
"+++++++++@@+++++++++",
"+++++++++@@+++++++++",
"++++++@@@@@@@@++++++",
"++++++@@@@@@@@++++++",
"+++++++++@@+++++++++",
"+++++++++@@+++++++++",
"+++++++++@@+++++++++",
"++++++++++++++++++++",
"++++++++++++++++++++",
"++++++++++++++++++++",
"++++++++++++++++++++",
"++++++++++++++++++++",
"++++++++++++++++++++",
"++++++++++++++++++++",
"...................."};
