/* XPM */
static char * right_active_xpm[] = {
"3 17 3 1",
" 	c None",
".	c #444444",
"+	c #000000",
"..+",
"..+",
"..+",
"..+",
"..+",
"..+",
"..+",
"..+",
"..+",
"..+",
"..+",
"..+",
"..+",
"..+",
"..+",
"..+",
"..+"};
