/* XPM */
static char * shade_active_xpm[] = {
"20 25 4 1",
" 	c None",
".	c #000000",
"+	c #666666",
"@	c #C1C1C1",
"....................",
"++++++++++++++++++++",
"++++++++++++++++++++",
"++++++++++++++++++++",
"++++++++++++++++++++",
"++++++++++++++++++++",
"++++++++++++++++++++",
"++++++++++++++++++++",
"++++++++++++++++++++",
"++++++++++++++++++++",
"+++++++++@@+++++++++",
"++++++++@@@@++++++++",
"+++++++@@@@@@+++++++",
"++++++@@@++@@@++++++",
"++++++++++++++++++++",
"++++++++++++++++++++",
"++++++++++++++++++++",
"++++++++++++++++++++",
"++++++++++++++++++++",
"++++++++++++++++++++",
"++++++++++++++++++++",
"++++++++++++++++++++",
"++++++++++++++++++++",
"++++++++++++++++++++",
"...................."};
