/* XPM */
static char * stick_toggled_prelight_xpm[] = {
"20 25 4 1",
" 	c None",
".	c #000000",
"+	c #666666",
"@	c #FFFFFF",
"....................",
"++++++++++++++++++++",
"++++++++++++++++++++",
"++++++++++++++++++++",
"++++++++++++++++++++",
"++++++++++++++++++++",
"++++++++++++++++++++",
"++++++++++++++++++++",
"++++++++++++@+++++++",
"++++++++@@++@@++++++",
"+++++++@@@+@@@@+++++",
"++++++@@+++@@+++++++",
"++++++@@++@+++++++++",
"++++++@@++++@@++++++",
"++++++@@++++@@++++++",
"+++++++@@@@@@+++++++",
"++++++++@@@@++++++++",
"++++++++++++++++++++",
"++++++++++++++++++++",
"++++++++++++++++++++",
"++++++++++++++++++++",
"++++++++++++++++++++",
"++++++++++++++++++++",
"++++++++++++++++++++",
"...................."};
