/* XPM */
static char * stick_pressed_xpm[] = {
"20 25 3 1",
" 	c None",
".	c #000000",
"+	c #666666",
"....................",
"++++++++++++++++++++",
"++++++++++++++++++++",
"++++++++++++++++++++",
"++++++++++++++++++++",
"++++++++++++++++++++",
"++++++++++++++++++++",
"++++++++++++++++++++",
"++++++++++++++++++++",
"++++++++....++++++++",
"+++++++......+++++++",
"++++++..++++..++++++",
"++++++..++++..++++++",
"++++++..++++..++++++",
"++++++..++++..++++++",
"+++++++......+++++++",
"++++++++....++++++++",
"++++++++++++++++++++",
"++++++++++++++++++++",
"++++++++++++++++++++",
"++++++++++++++++++++",
"++++++++++++++++++++",
"++++++++++++++++++++",
"++++++++++++++++++++",
"...................."};
